<?xml version="1.0" encoding="UTF-8" standalone="no"?>
<svg
   width="20"
   height="20"
   version="1.1"
   id="svg1"
   xmlns="http://www.w3.org/2000/svg"
   xmlns:svg="http://www.w3.org/2000/svg">
  <defs
     id="defs1" />
  <path
     fill-rule="evenodd"
     clip-rule="evenodd"
     d="M 10.008274,0 C 4.4739572,0 0,4.5833141 0,10.253499 c 0,4.532481 2.8666186,8.369131 6.8433784,9.727042 0.4971974,0.102083 0.6793187,-0.220624 0.6793187,-0.492081 0,-0.237707 -0.016389,-1.052496 -0.016389,-1.90145 C 4.7222485,18.198257 4.1424922,16.364723 4.1424922,16.364723 3.695076,15.176395 3.0321461,14.870979 3.0321461,14.870979 c -0.9112213,-0.628122 0.066375,-0.628122 0.066375,-0.628122 1.0107837,0.06792 1.5411686,1.052496 1.5411686,1.052496 0.8946275,1.56166 2.3362337,1.120412 2.9161949,0.848746 0.082764,-0.662081 0.3480586,-1.120412 0.6297424,-1.374994 -2.2204873,-0.237708 -4.556721,-1.120412 -4.556721,-5.0589374 0,-1.1204119 0.3974301,-2.0370748 1.0271725,-2.7499884 -0.099357,-0.2545823 -0.4474162,-1.3072862 0.099562,-2.7162387 0,0 0.8450512,-0.2716655 2.7504625,1.0524956 a 9.6223165,9.7853756 0 0 1 2.502171,-0.3395819 c 0.845052,0 1.706492,0.1189579 2.501967,0.3395819 1.905616,-1.3241611 2.750667,-1.0524956 2.750667,-1.0524956 0.546978,1.4089525 0.198715,2.4616564 0.09936,2.7162387 0.646337,0.7129136 1.027378,1.6295765 1.027378,2.7499884 0,3.9385254 -2.336234,4.8041464 -4.573315,5.0589374 0.364653,0.322498 0.679319,0.933538 0.679319,1.901242 0,1.374994 -0.01639,2.478531 -0.01639,2.817905 0,0.271665 0.182326,0.594372 0.679319,0.492498 3.97676,-1.358328 6.843378,-5.19477 6.843378,-9.727251 C 20.016344,4.5833141 15.525998,0 10.008274,0 Z"
     fill="#ffffff"
     id="path1"
     style="stroke-width:0.999998" />
</svg>
